<svg width="311" height="211" viewBox="0 0 311 211" fill="none" xmlns="http://www.w3.org/2000/svg">
<path d="M177.107 119.119L175.841 120.131L174.955 120.891L174.195 120.258L172.043 120.131L171.283 119.498H170.271V120.891L171.79 121.144L172.803 121.904L174.828 122.537L174.322 123.55V124.563L174.828 126.841L173.562 127.348L172.296 127.221H171.663V128.74L173.056 129.373H175.841L177.107 130.893L178.373 132.792L180.399 136.083H182.298L184.07 134.184H186.222C186.855 133.973 188.299 133.551 189.008 133.551C189.717 133.551 191.16 133.973 191.793 134.184L196.224 133.551L197.49 132.792L197.996 129.373L199.389 127.728L197.996 126.082C197.659 125.533 197.186 124.259 197.996 123.55C199.009 122.663 198.503 121.904 197.996 121.904C197.591 121.904 196.646 120.722 196.224 120.131V118.359H194.072L192.932 120.131H191.793L189.767 119.119L189.008 118.359C187.91 118.359 185.64 118.156 185.336 117.346C184.956 116.333 184.956 116.207 184.07 116.207C183.361 116.207 182.593 116.966 182.298 117.346V120.131H180.399V118.359V115.321L179.259 111.902H177.107V113.675L176.221 114.055L175.841 112.662L174.322 113.675H173.056L171.663 116.207L173.056 117.346H175.841L177.107 119.119Z" stroke="currentColor" stroke-width="2.5"/>
<path d="M210.783 153.554L211.543 154.694L211.669 154.567L212.049 155.074L212.682 155.833L213.188 155.074L213.568 153.807L213.188 153.554L212.682 152.541L211.163 153.174L210.783 153.554Z" stroke="currentColor" stroke-width="2.5"/>
<path d="M211.669 157.352L211.543 158.112V158.365V159.251L212.049 158.365L211.669 157.352Z" stroke="currentColor" stroke-width="2.5"/>
<path d="M247.675 179.507L247.371 179.254L246.864 176.469L246.231 179.254L243.066 181.279L239.648 185.204C238.382 185.837 235.774 187.103 235.47 187.103C235.166 187.103 234.078 186.344 233.571 185.964L230.912 183.938L229.773 181.533L230.912 179.254L231.672 177.735H229.773L229.267 176.469L229.773 175.709L228.634 175.203L229.773 173.81L228.634 173.05C228.38 172.417 227.874 171.101 227.874 170.898C227.874 170.696 228.38 170.139 228.634 169.885L227.874 166.467C228.212 165.539 228.963 163.657 229.267 163.555C229.57 163.454 229.393 162.247 229.267 161.656C229.309 161.023 229.469 159.707 229.773 159.504C230.077 159.301 232.094 158.66 233.065 158.365L233.444 155.959L235.977 153.933C237.496 152.878 240.61 150.743 240.914 150.642C241.218 150.541 242.729 148.996 243.446 148.236L244.712 146.844L245.345 145.451C246.147 144.227 247.776 141.729 247.877 141.527C247.978 141.324 248.763 139.163 249.143 138.108L251.549 133.93L252.435 130.892L252.941 128.107L254.967 124.815C255.6 124.604 256.942 124.056 257.246 123.549C257.549 123.043 257.119 122.663 256.866 122.536C257.203 121.692 257.929 119.954 258.132 119.751C258.334 119.548 258.976 118.907 259.271 118.612L258.765 117.092L256.866 117.979L253.954 118.612L250.409 120.637C251.464 119.582 253.65 117.472 253.954 117.472C254.258 117.472 255.684 116.628 256.359 116.206L254.46 115.7L256.359 114.054V112.788L258.765 111.395V112.788H260.284L261.55 114.054L262.689 112.788L260.79 111.395L262.689 108.737V107.851L265.095 104.179L266.361 105.951L267.5 104.179C268.049 104.179 269.222 104.179 269.526 104.179C269.83 104.179 270.919 103.588 271.425 103.293V102.027H272.944L274.97 99.115L276.236 97.4692C276.784 96.6674 277.958 95.0638 278.261 95.0638C278.565 95.0638 278.979 94.7262 279.148 94.5574L279.654 96.3298L279.148 100.381L279.654 98.6086L280.667 96.7096L281.933 94.5574V97.4692L283.326 97.849V96.3298L282.439 95.0638L283.326 93.6712C283.748 93.629 284.743 93.5699 285.351 93.6712C285.959 93.7724 286.026 94.3042 285.984 94.5574L286.364 96.7096L286.744 95.0638L287.757 94.5574L290.415 95.4436L292.061 96.7096V97.849L291.428 99.115L288.769 99.6214H290.415L292.061 100.381H293.707V102.027L292.567 101.394L292.061 103.293L291.428 104.179L290.415 107.091H290.035V109.496L290.415 111.395C290.964 111.691 292.162 112.282 292.567 112.282C293.074 112.282 293.707 113.168 293.96 113.421C294.163 113.624 295.142 114.518 295.606 114.94V116.459L294.973 118.232L293.96 120.764C294.382 121.186 295.302 122.03 295.606 122.03C295.91 122.03 296.661 123.211 296.999 123.802L298.898 125.955L299.91 127.6L298.898 128.487V130.386L299.404 131.398V132.285V132.538C299.657 132.918 300.214 133.677 300.417 133.677C300.619 133.677 301.345 133.677 301.683 133.677V135.196V135.956L302.696 136.842L303.835 137.222V138.361L302.696 140.514L304.341 141.4L306.494 142.413L307.506 143.172L308.899 144.565L308.646 147.097L307.886 149.502L307.38 151.781L306.114 153.933L305.481 155.959L304.341 158.365L303.202 161.276L302.442 162.416L301.303 163.175L299.024 163.935L296.112 165.834L293.833 167.48L290.289 169.885L288.01 170.772L287.124 169.885H285.731L284.592 168.999L283.326 167.48L281.173 166.72V164.568L280.667 161.276L279.654 159.504L279.021 156.719L278.515 154.693V151.781L279.021 150.642L279.654 148.743H280.16L281.173 146.844L282.946 145.198C283.368 143.932 284.288 141.324 284.592 141.02C284.895 140.716 285.14 139.459 285.225 138.868L286.491 136.842L287.883 135.956L286.87 132.918L284.592 131.398L283.326 131.652H281.173L280.16 132.285L278.768 132.538V133.677L278.008 134.437L277.249 135.956L276.995 137.602L276.489 138.868L276.616 140.134L276.995 140.514L278.008 141.4L277.755 142.413L276.489 143.426C276.405 143.763 276.211 144.438 276.109 144.438C276.008 144.438 276.067 145.282 276.109 145.704L274.97 147.097L273.451 148.49L272.818 148.743L272.311 148.616L272.185 149.249C271.974 149.671 271.526 150.515 271.425 150.515C271.324 150.515 270.876 150.431 270.665 150.389L270.032 151.275C269.948 151.486 269.855 151.933 270.159 152.034C270.463 152.136 270.37 152.583 270.286 152.794C270.117 153.005 269.754 153.427 269.653 153.427C269.551 153.427 268.851 153.174 268.513 153.047L269.02 153.933L268.513 155.959L266.994 155.453L266.361 156.339L268.133 157.732L267.754 159.504V160.897V162.796V165.834L269.02 168.366H270.665L271.298 170.392C272.311 171.278 274.489 173.05 275.096 173.05C275.704 173.05 274.843 174.063 274.337 174.57L272.311 176.089L273.451 177.228V178.494L271.298 179.254L267.754 180.14V183.052L268.513 187.483L267.754 192.42V196.598L265.728 198.75H263.576H262.056L260.79 199.89L261.423 203.055C260.706 203.35 259.195 203.941 258.891 203.941C258.588 203.941 256.739 204.363 255.853 204.574L255.347 202.549L255.853 201.029L254.207 198.244L253.321 197.231C253.701 196.894 254.562 196.218 254.967 196.218C255.372 196.218 254.798 194.784 254.46 194.066L251.042 191.028L250.789 187.483L249.523 185.204L248.383 183.052L248.89 180.52L247.675 179.507ZM283.326 131.652V130.386L281.427 128.487L281.173 126.334L280.16 123.043L279.654 121.397L279.148 118.612L278.768 116.459L277.249 114.56H274.97L272.311 113.421L271.045 111.522L271.235 110.889M290.415 106.584L289.782 105.951L290.035 104.052L290.289 102.786C289.613 102.533 288.212 102.027 288.01 102.027C287.807 102.027 286.575 101.183 285.984 100.761L285.098 101.141L283.705 102.533C283.283 102.871 282.439 103.647 282.439 104.052C282.439 104.458 281.933 106.838 281.68 107.977L282.439 110.256L281.427 112.282C281.216 112.071 280.743 111.623 280.54 111.522C280.287 111.395 278.008 110.636 277.755 110.762C277.553 110.864 277.417 112.071 277.375 112.661H276.742L275.603 112.282L274.59 111.522L273.451 109.243C273.113 109.074 272.387 108.737 272.185 108.737C271.982 108.737 271.341 109.243 271.045 109.496L271.425 110.256L271.235 110.889M271.235 110.889L270.286 110.383L269.653 110.889L269.526 112.915L269.399 114.94C269.273 115.447 268.969 116.459 268.766 116.459C268.513 116.459 266.994 115.193 266.867 115.193C266.766 115.193 264.968 115.447 264.082 115.573L264.335 117.092L264.462 118.612L262.816 118.865L261.423 120.004L261.044 121.523L260.917 123.043L261.044 124.562V125.701L260.284 128.107L259.271 130.006V131.398L258.132 131.652L257.246 132.918V135.576V138.108L255.98 140.134L255.22 143.299L256.359 145.451L254.967 146.844H252.435L252.055 149.629L250.789 150.389V153.427L251.169 157.225V159.504L251.549 162.036L253.068 163.555L253.574 164.568L252.941 166.973L251.928 167.48V168.493L252.688 170.139L253.068 171.911L252.941 173.43L251.928 174.57H251.549L250.789 175.709L250.156 176.469L250.789 177.735V179.254L250.409 180.773H250.156L249.143 179.507H247.675M238.129 203.055L238.762 199.89L238.129 197.991L238.762 194.573L239.648 196.218L241.167 193.433L243.699 191.661L245.598 189.382L246.231 193.433C246.062 194.699 245.826 197.231 246.231 197.231C246.636 197.231 247.497 197.738 247.877 197.991L246.864 199.51H245.598V201.536L243.319 203.055V205.081L244.585 206.98C244.417 207.275 244.003 207.866 243.699 207.866C243.319 207.866 241.547 207.866 241.167 207.866C240.863 207.866 240.028 207.275 239.648 206.98V203.055H238.129ZM243.826 203.815L244.332 203.182H245.218L245.978 202.549L246.864 203.055L247.117 203.941L247.877 205.207C247.793 205.503 247.573 206.093 247.371 206.093C247.117 206.093 246.231 206.093 246.105 206.093C245.978 206.093 245.092 205.587 244.965 205.587C244.864 205.587 244.163 204.996 243.826 204.701V203.815ZM246.991 207.613L247.371 206.98L247.877 206.22V207.359C247.708 207.781 247.32 208.625 247.117 208.625C246.915 208.625 246.949 207.95 246.991 207.613ZM248.637 206.98L249.903 207.106L250.283 207.613H251.042L251.549 205.587C251.338 205.418 250.89 205.081 250.789 205.081C250.688 205.081 249.565 204.827 249.016 204.701L248.383 202.549L248.637 201.662L249.523 201.029L250.156 200.143L251.042 200.65L251.549 202.169L252.182 199.384C252.393 199.384 252.865 199.384 253.068 199.384C253.27 199.384 254.081 200.228 254.46 200.65L253.827 203.055C253.448 203.308 252.713 203.815 252.815 203.815C252.916 203.815 253.532 204.743 253.827 205.207L253.321 206.853L252.435 208.246L251.549 208.752L248.89 208.625L248.637 206.98ZM262.056 205.081L262.31 204.068H263.069L263.576 204.574C263.955 204.912 264.664 205.587 264.462 205.587C264.209 205.587 263.829 206.093 263.576 206.093C263.373 206.093 262.647 205.756 262.31 205.587L262.056 205.081ZM273.071 188.622L273.704 187.23L274.59 185.331H275.35C275.603 185.246 276.135 185.052 276.236 184.951C276.337 184.85 276.869 184.655 277.122 184.571L276.489 185.584L275.983 186.344L275.603 187.483L275.983 188.369L275.729 189.382L274.717 191.281L274.463 191.787C274.337 191.745 274.058 191.686 273.957 191.787C273.856 191.889 273.577 191.154 273.451 190.775L273.071 189.129V188.622ZM268.387 193.053L269.02 191.661L269.526 190.268L270.032 189.762L269.399 191.914L269.02 193.813V195.459L268.26 197.105L268.214 193.813L268.387 193.053ZM275.856 170.265V169.379L276.489 169.126L276.742 169.632L276.869 169.252L276.489 168.366L277.375 168.493L278.261 169.126L278.008 169.759L276.869 170.898L276.109 170.772L275.856 170.265Z" stroke="currentColor" stroke-width="2.5"/>
<path d="M263.576 61.388L262.69 60.8816M262.69 60.8816L263.576 60.1221C264.167 60.2487 265.424 60.4259 265.728 60.1221C266.032 59.8182 265.855 61.1771 265.728 61.8945L264.968 63.5403C265.306 63.7513 266.082 64.1733 266.488 64.1733C266.893 64.1733 267.078 63.0761 267.121 62.5275H269.146V60.1221L270.286 61.8945L272.564 62.5275L273.957 63.0339C274.801 62.8651 276.742 62.5275 277.755 62.5275C279.021 62.5275 280.794 62.5275 281.427 62.5275C281.933 62.5275 283.072 64.5531 283.579 65.5659L279.148 67.3384L276.489 68.3512V69.6172L274.463 70.7566H270.919L270.286 72.2758C268.26 71.9382 264.082 71.263 263.576 71.263C263.069 71.263 262.774 70.9254 262.69 70.7566H259.524L254.207 70.1236L254.967 69.3639L251.802 69.6172L250.662 68.0979H252.941L256.106 68.3512L254.587 67.3384L260.791 66.5787C258.723 66.5787 254.511 66.5787 254.207 66.5787C253.827 66.5787 251.042 67.3384 250.662 67.3384C250.358 67.3384 248.426 66.8319 247.497 66.5787L244.459 66.0723V64.6797C244.628 64.5109 245.092 64.1733 245.598 64.1733C246.105 64.1733 246.147 63.7513 246.105 63.5403H243.193L244.459 62.5275C244.29 62.3165 244.054 61.7932 244.459 61.388C244.864 60.9828 245.387 61.5568 245.598 61.8945C246.105 62.3165 247.193 63.1858 247.497 63.287C247.801 63.3883 248.299 63.4981 248.51 63.5403L247.118 61.388L249.017 61.8945L250.156 62.5275L249.523 61.388V60.1221L251.802 59.7422L251.928 60.8816H253.194L254.207 61.388L254.587 63.1604C255.304 62.7385 256.866 61.8945 257.372 61.8945C257.879 61.8945 259.018 61.8945 259.524 61.8945V63.0339L260.791 64.6797L262.183 64.1733L262.69 62.5275C262.31 62.5275 261.398 62.5275 260.791 62.5275C260.183 62.5275 261.803 61.4302 262.69 60.8816ZM279.148 75.3142C279.274 75.5674 279.578 76.0738 279.781 76.0738C280.034 76.0738 280.92 76.327 281.047 76.327C281.148 76.327 281.595 76.0738 281.806 75.9472C281.638 75.8206 281.249 75.5674 281.047 75.5674C280.844 75.5674 280.287 75.2298 280.034 75.061H279.401L279.148 75.1876V75.3142ZM285.351 74.5546L287.124 73.5418L289.276 73.2886C289.74 73.5418 290.694 74.0482 290.795 74.0482C290.896 74.0482 292.272 74.0482 292.947 74.0482C292.399 74.217 291.251 74.5546 291.048 74.5546C290.846 74.5546 289.36 74.3014 288.643 74.1748L287.503 74.5546L286.617 74.6812L285.351 74.5546ZM300.164 64.1733L303.329 63.0339L308.899 62.5275L305.101 63.4136L300.164 64.1733ZM262.563 85.5689L263.449 86.2019L261.93 86.8349L262.816 87.7212C263.111 87.8056 263.753 87.9744 263.956 87.9744C264.158 87.9744 265.306 87.8056 265.855 87.7212L266.867 86.8349L268.387 86.2019L269.273 84.0497L270.286 83.0369L269.653 82.7837L267.374 83.0369L266.361 82.5305L265.222 81.6443C265.179 81.3911 265.12 80.8847 265.222 80.8847C265.323 80.8847 266.277 80.8847 266.741 80.8847L266.234 80.2517L264.462 79.6186L262.816 79.9985L261.044 80.2517L256.866 79.9985L256.233 80.6315L256.486 81.6443L258.258 82.5305L257.625 83.4167L257.119 84.4295L256.866 85.0625L255.726 85.1891V85.6955L255.98 86.4551H258.005L261.044 85.6955L262.563 85.5689ZM255.347 79.9985L261.17 79.6186L261.55 77.8462L261.044 76.8334L259.145 76.5802L255.98 77.2132L254.587 77.4664L252.688 77.593L254.587 78.4792L253.954 79.2388L255.347 79.492V79.9985ZM250.409 70.3767C251.38 70.2923 253.296 70.1236 253.194 70.1236C253.093 70.1236 251.211 69.9547 250.283 69.8703L250.409 70.3767ZM212.049 74.5546L213.315 76.327L214.328 77.9728L216.48 78.4792L218.126 79.2388L218.885 79.492L217.493 77.9728L215.72 77.4664L214.961 76.327L214.454 74.8078L212.049 74.1748V74.5546ZM213.315 69.6172L213.568 68.7309H212.808L213.568 67.5915L212.935 66.3255L214.834 67.8447L214.961 66.5787H216.86L218.506 65.3127L218.885 67.0851L220.531 66.0723L221.291 66.5787C222.472 66.4099 224.886 66.0723 225.089 66.0723C225.291 66.0723 226.186 66.4099 226.608 66.5787L223.949 67.8447H221.924C223.021 67.9291 225.089 68.0979 224.582 68.0979C224.076 68.0979 223.443 68.9419 223.19 69.3639H225.595L226.228 70.1236L227.241 70.7565L226.735 69.1107L228.38 67.3384L229.52 66.3255L230.533 67.0851L232.305 69.1107L233.698 71.3895V72.4024L235.09 72.1491L235.85 73.5418V71.1363L234.584 68.7309L233.318 65.3127L235.09 65.8191L235.47 63.92L237.876 64.1733C238.044 64.7219 238.433 65.8697 238.635 66.0723C238.838 66.2748 239.901 65.6503 240.408 65.3127L242.433 66.3255L243.699 67.0851L242.053 68.7309V70.3767L244.839 68.3512H246.484L246.991 70.1236C246.653 70.4612 246.079 71.1363 246.484 71.1363C246.89 71.1363 248.004 71.6427 248.51 71.8959C249.312 71.8959 251.093 71.9466 251.802 72.1491C252.511 72.3517 251.928 72.6556 251.549 72.7822C252.266 72.5712 253.751 72.1491 253.954 72.1491C254.157 72.1491 254.798 72.74 255.093 73.0354L253.448 73.4152L258.258 74.428L257.625 75.694L255.347 76.327H253.194H251.169L248.763 77.3398L247.75 77.4664L248.13 79.2388V80.8847L247.244 81.1379L245.092 81.5177V82.2773L246.105 83.7965C245.767 84.1341 245.092 84.8853 245.092 85.1891C245.092 85.493 244.923 85.9909 244.839 86.2019H242.433L241.674 87.9744L241.167 89.1138V90.5064L240.281 90.7596L239.775 92.2788C239.471 92.2788 239.986 92.532 240.281 92.6586L239.521 93.5448H238.255L236.483 93.165L234.584 91.899L232.685 91.266L234.204 90.7596L236.483 90.2532L235.09 89.7468H234.584H233.698H232.305L231.166 89.1138L229.013 88.3542H228.38L226.988 86.3285V85.6955L228.001 85.1891L229.9 85.5689C230.364 85.4423 231.394 85.1891 231.799 85.1891C232.305 85.1891 234.204 85.9487 234.837 86.0753C235.344 86.1766 235.723 86.2863 235.85 86.3285L234.584 85.1891L230.406 84.6827C230.026 84.3029 229.495 83.5939 230.406 83.7965C231.318 83.9991 232.558 84.0497 233.065 84.0497L238.255 83.0369L235.723 82.7837L231.799 83.4167H229.013L226.228 83.7965L225.595 82.5305V80.6315L227.747 80.8847L230.406 80.6315L233.065 79.2388L234.837 78.9856L238.129 78.7324L240.281 78.4792H237.116V77.9728L238.129 76.5802L237.622 75.4408L236.863 76.0738L235.09 77.4664H233.698H231.799L232.305 76.5802L233.065 75.4408L232.685 74.8078L231.799 75.4408L231.166 76.5802H230.406L230.153 75.8206H229.52L229.013 76.0738V76.8334L228.001 77.8462L229.9 78.4792L228.38 78.7324L227.747 79.2388L226.988 79.9985H225.595H221.924L221.544 78.859L219.898 77.9728V77.2132C219.687 77.0866 219.189 76.8334 218.885 76.8334C218.581 76.8334 217.239 75.6518 216.606 75.061C216.649 74.9344 216.809 74.6559 217.113 74.5546C217.417 74.4533 216.649 74.2592 216.227 74.1748L215.72 73.4152C216.353 73.4152 217.67 73.4152 217.873 73.4152C218.075 73.4152 219.307 73.9216 219.898 74.1748L220.531 73.4152L217.873 72.1491L218.506 71.8959L217.873 70.7565L216.86 70.7566V71.3895L216.227 71.8959L215.214 71.7693L213.948 70.7565L213.315 69.6172Z" stroke="currentColor" stroke-width="2.5"/>
<path d="M50.6719 55.4241L49.4494 54.2901L48.7509 53.7667C48.5762 53.7667 48.0698 53.7667 47.4411 53.7667C46.8124 53.7667 45.4909 52.9525 44.9088 52.5454L44.3849 51.5858V50.0156L45.1707 49.5795L44.1229 48.4454L39.233 47.2242L35.2163 45.3923L31.4615 45.1305L29.8897 44.4327L28.7546 45.3923C28.5508 45.6249 28.1084 46.0901 27.9687 46.0901C27.829 46.0901 27.3866 45.3923 27.1828 45.0433L25.9603 45.4795L25.6984 46.0901H24.5632L23.7773 46.6135L22.7295 46.1774L22.6422 45.4795L21.8563 45.2178L20.9831 45.7412L20.2845 46.1774C19.9644 45.8575 19.2891 45.2178 19.1494 45.2178C19.0097 45.2178 18.8583 45.683 18.8001 45.9157L20.7211 47.3114L17.6649 46.788L11.8145 44.6944L12.0765 43.822C12.5422 43.822 13.5434 43.822 13.8229 43.822C14.1023 43.822 15.1036 43.5894 15.5693 43.4731C14.2886 43.1533 11.6923 42.5135 11.5525 42.5135C11.4128 42.5135 10.0972 42.1064 9.45686 41.9029C9.10758 41.8738 8.39156 41.8331 8.3217 41.9029C8.25185 41.9727 7.07011 41.583 6.48798 41.3795L6.74994 39.8965L12.0765 39.4603H15.3073L17.4903 38.5008L14.2595 37.8029C13.3572 37.9192 11.5001 38.1518 11.2906 38.1518C11.081 38.1518 9.98078 37.5703 9.45686 37.2795L7.27386 36.6689L4.91622 35.7093L1.51074 34.4008L2.12198 32.2199L4.91622 31.9582L10.0681 30.6497L13.037 29.9519L16.0932 29.1667L24.5632 28.0327L25.0871 26.4625L24.5632 24.4561L24.8252 23.1476L23.4281 22.8859L20.9831 23.4966L19.324 23.0604L18.1015 22.7115C18.0433 21.9845 17.9618 20.5306 18.1015 20.5306C18.2413 20.5306 20.0808 20.0654 20.9831 19.8327L26.8335 17.6519L31.3742 15.0349L33.7318 15.4711C34.3431 15.8781 35.6179 16.6923 35.8275 16.6923C36.0895 16.6923 36.788 15.6455 36.5261 15.6455C36.3165 15.6455 36.1477 15.2384 36.0895 15.0349L37.2246 14.1625L34.9543 12.3306C36.3805 12.0399 39.3902 11.4583 40.0189 11.4583C40.6476 11.4583 42.9004 12.0399 43.9483 12.3306L48.2269 14.7732L41.416 10.7604L46.4805 10.586L49.7114 10.237C49.8569 10.3533 50.1829 10.586 50.3226 10.586C50.4623 10.586 51.7779 9.77178 52.4183 9.36469L55.2999 9.01576L57.0463 9.62639L58.5307 11.72V12.9413L58.0941 14.337L60.3644 11.72L61.9362 11.8945L64.7304 12.3306L69.4457 13.4647L64.9924 11.72L68.0486 11.8945H69.9696C69.0382 11.1384 67.1055 9.62639 66.8261 9.62639C66.5467 9.62639 65.4872 8.46328 64.9924 7.88172L67.7866 8.23065L70.7555 8.84129C71.1921 8.78313 72.1875 8.73661 72.6765 9.01576C73.1655 9.2949 74.2192 9.94625 74.6849 10.237C77.0134 10.586 81.653 11.3187 81.5832 11.4583C81.5133 11.5979 83.3587 12.6214 84.2901 13.1157L81.8451 10.237L76.1693 8.84129L75.2961 7.35831L80.71 7.18385L83.7662 8.84129L85.5999 9.62639C86.2984 9.33561 87.486 8.73661 86.6477 8.66682C85.8095 8.59703 83.3878 7.53278 82.2817 7.00938C82.2817 6.7186 82.3516 6.13704 82.631 6.13704C82.9104 6.13704 86.8224 5.84626 88.7434 5.70087C89.0054 4.85761 89.5817 3.1711 89.7912 3.1711C90.0532 3.1711 93.1967 4.04343 93.4587 4.13067C93.7206 4.2179 96.0783 4.65407 96.7768 4.65407C97.3357 4.65407 99.28 4.13067 100.182 3.86897H103.588L101.579 2.56046H103.588L106.12 2.21152C107.081 2.21152 109.037 2.21152 109.176 2.21152C109.351 2.21152 114.415 1.42642 114.765 1.42642C115.044 1.42642 119.131 1.31011 121.139 1.25195L129.871 1.77536L137.555 3.08386C138.458 3.25833 140.122 3.60726 139.564 3.60726C138.865 3.60726 133.277 4.39237 132.927 4.39237C132.648 4.39237 138.516 4.15974 141.485 4.04343V5.70087L140.699 6.57321L146.811 5.70087L151.876 7.00938C151.206 7.56186 149.78 8.66682 149.431 8.66682C148.994 8.66682 141.834 9.71363 141.485 9.71363C141.205 9.71363 130.482 10.4697 125.156 10.8477L130.744 11.8945C133.655 11.72 139.546 11.3711 139.826 11.3711C140.175 11.3711 142.707 11.3711 142.445 11.3711C142.236 11.3711 139.098 12.5342 137.555 13.1157C137.817 13.4065 138.411 13.9881 138.69 13.9881C139.04 13.9881 143.144 12.854 143.58 12.854C143.93 12.854 146.113 12.2143 147.16 11.8945C147.277 11.5455 147.615 10.8477 148.034 10.8477C148.558 10.8477 150.741 10.8477 151.09 10.8477C151.439 10.8477 153.36 11.8072 153.186 12.0689C153.011 12.3306 151.788 15.4711 151.439 15.4711C151.16 15.4711 149.809 16.0526 149.169 16.3434L146.287 17.9136L150.391 17.6519L153.448 15.1221L156.678 13.1157L158.163 13.4647L157.552 14.6859C158.017 14.6859 159.071 14.6859 159.56 14.6859C160.171 14.6859 160.695 14.6859 161.044 14.6859C161.394 14.6859 162.616 15.4711 162.965 15.4711C163.315 15.4711 165.847 13.1157 166.022 13.1157C166.161 13.1157 167.069 12.5923 167.506 12.3306H175.016L180.779 14.5115L176.238 16.5179L174.142 17.1285L171.872 17.5647L172.483 18.6115C171.377 18.9022 169.113 19.5013 168.903 19.571C168.641 19.6583 165.847 19.92 165.498 19.92C165.218 19.92 163.984 19.4547 163.402 19.2221L161.044 19.571L157.814 19.92L162.616 20.9668L166.982 20.1817C167.506 20.4434 168.519 20.9668 168.379 20.9668C168.205 20.9668 164.974 22.537 164.799 22.6242C164.659 22.694 160.782 23.0022 158.861 23.1476L156.329 22.0136C156.911 23.0022 158.023 24.997 157.814 25.0668C157.604 25.1366 157.726 25.9682 157.814 26.3753L158.512 26.9859L159.56 28.2944C159.065 28.7306 158.023 29.6204 157.814 29.6902C157.552 29.7774 156.329 30.1263 156.329 30.388C156.329 30.5974 154.932 30.4753 154.233 30.388V31.0859L152.924 32.3072L151.352 34.8369V36.7561L154.233 35.7093C155.543 36.0582 158.233 36.7561 158.512 36.7561C158.861 36.7561 160.608 37.6284 159.56 37.6284C158.722 37.6284 157.057 37.6284 156.329 37.6284H155.281L158.512 39.3731L160.52 40.071V41.1178V42.7752L158.512 42.339C158.192 42.1937 157.429 41.9029 156.94 41.9029C156.451 41.9029 155.048 41.6121 154.408 41.4667L152.924 42.339L151.352 42.7752H150.042L149.169 42.339V44.2582C149.198 44.2582 149.413 44.2582 150.042 44.2582C150.828 44.2582 149.78 44.6071 151.352 44.8688C152.924 45.1305 152.924 45.3922 154.408 45.3922C156.434 45.3922 156.533 46.0901 156.329 46.439C156.271 46.439 155.98 46.439 155.281 46.439C154.583 46.439 153.418 46.788 152.924 46.9624L156.329 47.3986L158.512 48.6199C158.046 48.8816 157.255 49.4573 157.814 49.6667C158.372 49.876 158.512 50.4518 158.512 50.7135C158.57 50.5681 158.512 50.3645 157.814 50.7135C157.115 51.0624 156.533 51.266 156.329 51.3241L154.408 50.7135C153.942 50.917 153.133 51.3241 153.622 51.3241C154.233 51.3241 155.369 51.9348 156.94 52.3709C158.512 52.8071 158.861 53.156 158.861 53.505C158.861 53.7841 158.861 54.261 158.861 54.4645C158.978 54.7262 159.071 55.3194 158.512 55.5986C157.814 55.9475 157.377 55.9475 156.329 56.122C155.281 56.2964 153.535 56.4709 153.186 56.4709C152.836 56.4709 152.225 57.6922 152.924 57.9539C153.622 58.2156 153.535 58.3028 154.408 58.3901C154.408 59.5241 154.321 60.3092 153.622 60.4837C152.924 60.6581 151.003 60.1347 150.479 60.4837C149.955 60.8326 148.208 61.0071 147.684 61.2688C147.265 61.4781 145.589 61.356 144.803 61.2688H144.279C143.871 61.5213 143.406 61.9622 144.803 61.7049C146.549 61.3834 146.2 60.8326 147.684 61.7049C149.169 62.5773 149.605 64.2347 150.479 64.7581C151.352 65.2815 150.915 65.9794 150.479 66.2411C150.042 66.5028 149.693 66.59 149.169 66.939C148.645 67.2879 145.851 66.939 145.327 66.939C144.908 66.939 143.056 66.4737 142.183 66.2411L150.479 70.7772C150.042 70.8354 149.169 71.0215 149.169 71.3006C149.169 71.5798 149.635 72.3474 149.867 72.6964C149.897 72.7255 150.06 72.9755 150.479 73.7432C151.003 74.7028 150.828 75.5751 151.003 76.0113C151.177 76.4474 151.352 77.407 149.867 77.4942C148.383 77.5815 146.899 77.4942 146.375 77.4942C145.851 77.4942 144.104 76.0113 143.842 76.0113C143.58 76.0113 142.62 73.7432 142.183 73.7432C141.834 73.7432 141.106 73.0453 140.786 72.6964C140.466 72.551 139.826 72.3474 139.826 72.6964C139.826 73.0453 140.233 75.2262 140.437 76.273C140.495 76.273 140.454 76.273 139.826 76.273C139.04 76.273 138.079 76.273 138.428 76.8836C138.778 77.4942 140 78.1921 141.397 78.1921C143.842 78.1921 145.065 78.1921 146.375 78.1921C147.684 78.1921 148.383 77.8432 149.169 78.1921C149.169 79.5006 147.684 79.7623 147.684 80.1985C147.684 80.6347 146.899 81.0708 146.375 81.5942C145.851 82.1176 144.716 82.641 143.842 83.2517C142.969 83.8623 141.572 84.9091 140.437 85.4325C139.302 85.9559 137.293 86.2176 136.769 86.5665C136.245 86.9155 133.189 87.1772 132.578 87.4389C132.089 87.6482 130.803 88.0495 130.22 88.224C129.667 88.3403 128.474 88.6078 128.125 88.7474C127.775 88.887 125.767 88.8055 124.807 88.7474L123.497 89.0963C123.439 88.98 123.113 88.7474 122.274 88.7474C121.436 88.7474 119.48 88.3985 118.607 88.224L120.79 90.6665L117.122 92.2367C116.86 92.2367 116.337 92.3589 116.337 92.8474C116.337 93.458 115.463 94.4176 115.463 95.1155C115.463 95.8133 114.415 96.8601 114.241 97.2091C114.066 97.558 111.621 99.2154 111.447 99.6516C111.272 100.088 109.788 100.611 109.264 100.873C108.74 101.135 105.858 101.484 105.509 101.658C105.16 101.832 104.112 101.658 103.675 101.658C103.326 101.658 101.958 101.658 101.317 101.658L100.357 102.269C100.124 102.269 99.6409 102.356 99.5711 102.705C99.5012 103.054 99.1927 103.897 99.0472 104.275C98.9307 104.362 98.6106 104.572 98.2613 104.711C97.912 104.851 96.6604 104.769 96.0783 104.711C95.9619 105.089 95.7989 105.95 96.0783 106.369C96.4276 106.892 96.2529 107.415 96.8642 107.677C97.3532 107.886 96.1947 110.032 95.5544 111.079C95.3215 111.544 94.8383 112.632 94.7685 113.26C94.6812 114.045 93.284 115.877 93.1094 116.575C92.9348 117.273 91.7123 118.494 91.7123 119.105C91.7123 119.715 91.2757 121.024 91.2757 121.46C91.2757 121.896 91.7996 121.983 91.2757 122.681C90.8566 123.24 89.6457 125.356 89.0927 126.345C89.2382 126.491 89.442 126.869 89.0927 127.217C88.7434 127.566 88.4814 128.003 88.3941 128.177L87.0843 128.613C86.5313 128.613 85.303 128.613 84.814 128.613C84.325 128.613 82.8056 128.613 82.1071 128.613L80.448 127.741C80.5353 127.276 80.5353 126.345 79.8368 126.345C79.1382 126.345 77.2754 125.066 76.4313 124.426H75.0342H73.7244L69.533 120.588L68.8345 119.105C68.165 117.389 66.7213 113.888 66.3022 113.609C65.883 113.33 64.1483 111.225 63.3333 110.207L62.5474 108.898L61.7615 104.711L60.5391 102.705L57.2209 99.8261C56.8425 99.5062 56.3128 98.7269 57.2209 98.1686C58.3561 97.4708 58.2687 96.5984 60.0151 96.1623C60.0151 95.0457 58.7927 94.5921 58.1814 94.5048C57.5411 94.3013 56.4525 93.8244 57.2209 93.5452C57.9893 93.2661 59.4039 91.219 60.0151 90.2304C59.5494 89.8524 58.8101 89.0963 59.5785 89.0963C60.5391 89.0963 60.5391 88.9219 61.7615 88.5729C62.984 88.224 63.8572 86.5665 64.6431 86.2176C65.429 85.8687 65.3417 84.9963 65.6036 84.6474C65.8132 84.3683 65.6909 82.7283 65.6036 81.9432V80.1985C65.72 79.9659 65.6909 79.4308 64.6431 79.1517C63.5953 78.8725 60.8301 76.7673 59.5785 75.7496L57.2209 74.5283C57.5702 74.5283 58.845 74.5283 61.1503 74.5283C64.0319 74.5283 63.6826 74.7028 64.6431 74.9645C65.6036 75.2262 65.5163 76.6219 66.3022 76.6219C67.0881 76.6219 67.6993 74.8772 66.3022 74.5283C65.1845 74.2491 61.9944 72.6673 60.5391 71.9113C60.1607 71.6496 59.2816 71.1262 58.7927 71.1262C58.3037 71.1262 55.329 70.312 53.9027 69.9049L54.252 66.0666V63.973L53.9027 63.0134L52.331 59.7858C51.7779 59.4369 50.6719 58.7041 50.6719 58.5645C50.6719 58.4249 50.3808 57.4596 50.2353 56.9943L50.6719 55.4241Z" stroke="currentColor" stroke-width="2.5"/>
</svg>
